<svg version="1.1" id="Layer_1" xmlns="http://www.w3.org/2000/svg" xmlns:xlink="http://www.w3.org/1999/xlink" x="0px" y="0px"
	 width="100%" viewBox="0 0 1080 1080" enable-background="new 0 0 1080 1080" xml:space="preserve">
<path fill="#0E6FB9" opacity="1.000000" stroke="none" 
	d="
M1081.000000,369.000000 
	C1081.000000,606.639221 1081.000000,843.778503 1081.000000,1080.958862 
	C721.069031,1080.958862 361.138092,1080.958862 1.103578,1080.958862 
	C1.103578,721.110718 1.103578,361.221375 1.103578,1.166020 
	C360.999939,1.166020 720.999939,1.166020 1081.000000,1.166020 
	C1081.000000,123.528679 1081.000000,246.014343 1081.000000,369.000000 
M272.068634,195.410263 
	C278.152008,205.751541 286.637878,213.666855 297.409790,218.725021 
	C312.795959,225.949860 328.923218,227.324234 345.642273,223.928238 
	C372.589355,218.454681 392.372589,197.039948 393.112610,169.711929 
	C394.149200,131.432358 393.951904,93.119339 394.265747,54.820480 
	C394.270874,54.192848 394.063293,53.563473 393.926331,52.768795 
	C381.849365,52.768795 369.952454,52.768795 357.449463,52.768795 
	C357.449463,62.981342 357.449463,72.922928 357.449463,82.864517 
	C357.449463,92.713806 357.449463,102.563095 357.449463,113.634270 
	C338.502411,94.858604 305.996735,99.602386 290.022614,111.478851 
	C264.811829,130.222626 256.736694,165.278778 272.068634,195.410263 
M649.109253,217.629532 
	C666.642761,206.767426 677.797241,191.994888 679.652588,170.685654 
	C682.217773,141.222916 666.848938,113.870361 640.912170,104.692520 
	C622.776123,98.274979 604.951965,98.014709 589.305908,111.757927 
	C588.772827,112.226120 587.976135,112.394180 586.711914,112.972031 
	C586.711914,92.596001 586.711914,72.838036 586.711914,52.787174 
	C574.555420,52.787174 562.828064,52.787174 550.940735,52.787174 
	C550.798767,53.677128 550.607910,54.309517 550.609863,54.941311 
	C550.729858,93.750916 550.321533,132.573730 551.266724,171.363525 
	C551.646667,186.960159 558.483337,201.114105 571.246948,210.680313 
	C595.250183,228.670517 621.322632,230.227936 649.109253,217.629532 
M428.101288,206.395813 
	C434.542053,213.124725 442.205811,217.883575 450.922913,221.178650 
	C467.243591,227.347885 484.049652,225.628479 500.776611,224.356415 
	C507.676147,223.831711 514.484558,222.108627 521.280396,220.939896 
	C521.280396,209.367371 521.280396,198.330322 521.280396,186.962631 
	C519.386780,187.215515 518.098145,187.473160 516.799011,187.547958 
	C502.211060,188.388016 487.624573,189.757660 473.031464,189.836700 
	C462.060944,189.896118 453.137634,183.234772 450.821625,174.960709 
	C452.247955,175.309586 453.522430,175.505035 454.714600,175.930954 
	C466.582397,180.170990 478.859314,181.613266 491.051941,178.698212 
	C499.496613,176.679230 508.348663,174.079819 515.513855,169.423904 
	C536.633728,155.700287 536.620605,126.313553 515.606079,111.920769 
	C495.072571,97.857483 472.434326,97.065628 449.790405,105.677727 
	C405.475037,122.532028 403.076721,179.607376 428.101288,206.395813 
M953.651428,204.496078 
	C953.651428,198.760452 953.651428,193.024811 953.651428,188.057388 
	C939.382874,188.906982 926.140259,189.810165 912.884644,190.439789 
	C905.468018,190.792099 898.306763,189.439301 891.677246,185.859436 
	C887.339661,183.517136 884.214722,180.237442 882.699219,174.812332 
	C884.560730,175.373901 885.797974,175.723999 887.020508,176.119400 
	C907.204407,182.647430 926.663391,181.153564 945.386597,170.968826 
	C970.366638,157.380630 967.674988,124.031082 946.408447,110.729225 
	C932.555481,102.064400 917.438721,99.480080 901.430969,100.944229 
	C882.974670,102.632317 867.557617,110.132607 856.160522,125.056015 
	C845.969299,138.400467 843.864807,153.781387 844.888123,170.000061 
	C846.252686,191.626724 856.645569,207.549744 875.588379,217.533829 
	C900.810242,230.827393 926.983398,225.720169 953.643982,220.851013 
	C953.643982,215.456223 953.643982,210.473434 953.651428,204.496078 
M124.423950,223.113861 
	C145.734650,228.624588 166.676315,224.947662 187.769165,220.864838 
	C187.769165,209.476898 187.769165,198.378494 187.769165,188.025864 
	C174.242355,188.857269 160.991028,189.817032 147.723679,190.430099 
	C140.335480,190.771484 133.146179,189.574188 126.488091,185.979309 
	C122.027130,183.570724 118.803581,180.280304 117.218742,174.771622 
	C119.243401,175.391006 120.655602,175.794800 122.049660,176.253738 
	C142.845154,183.099854 162.687164,180.947205 181.598267,169.963486 
	C203.308762,157.353790 201.853226,127.390846 185.389420,114.151817 
	C173.756073,104.797112 160.244980,100.873734 145.528091,100.624016 
	C126.242203,100.296776 108.892715,105.570885 95.288239,119.752838 
	C79.339935,136.378098 76.654732,156.903336 80.683258,178.411057 
	C85.160851,202.316315 101.136612,215.988235 124.423950,223.113861 
M990.267456,69.804321 
	C985.363159,78.713814 982.854187,88.139427 982.840515,98.423645 
	C982.786499,139.059967 982.462830,179.695892 982.261230,220.332077 
	C982.255005,221.589218 982.490723,222.847565 982.616333,224.133423 
	C994.720459,224.133423 1006.447876,224.133423 1018.617676,224.133423 
	C1018.617676,196.007614 1018.617676,168.261093 1018.617676,139.996704 
	C1028.956543,139.996704 1038.864136,139.996704 1048.897339,139.996704 
	C1048.897339,128.409317 1048.897339,117.346199 1048.897339,105.752373 
	C1038.724976,105.752373 1028.816162,105.752373 1018.962463,105.752373 
	C1017.588623,86.499237 1027.665771,75.234039 1046.135376,74.860840 
	C1050.410156,74.774460 1054.688232,74.848083 1058.715332,74.848083 
	C1059.083374,73.979568 1059.320190,73.678780 1059.323242,73.375679 
	C1059.392944,66.383797 1059.468628,59.391708 1059.479736,52.399555 
	C1059.502075,38.448238 1059.479980,38.337196 1045.593018,39.137497 
	C1022.566895,40.464489 1003.234924,48.677189 990.267456,69.804321 
M59.278999,74.500961 
	C59.278999,67.239983 59.278999,59.979000 59.278999,52.922050 
	C46.799267,52.922050 35.075535,52.922050 23.424667,52.922050 
	C23.424667,110.248756 23.424667,167.137344 23.424667,224.174316 
	C35.457733,224.174316 47.177551,224.174316 59.278973,224.174316 
	C59.278973,174.389679 59.278973,124.945274 59.278999,74.500961 
M702.827881,138.276077 
	C699.780334,145.551392 697.938965,152.991043 698.075256,161.021790 
	C698.309814,174.847870 698.014465,188.682693 697.963745,202.513947 
	C697.937561,209.659119 697.959229,216.804443 697.959229,224.175476 
	C710.324341,224.175476 722.398804,224.175476 734.839355,224.175476 
	C734.839355,222.025696 734.835144,220.215790 734.839905,218.405899 
	C734.890442,199.243088 734.786682,180.078171 735.047119,160.918198 
	C735.228760,147.555130 743.176086,138.719360 756.488342,137.003021 
	C762.686157,136.203934 768.996826,136.280502 775.402283,135.952682 
	C775.402283,125.852608 775.521484,115.220047 775.239685,104.598145 
	C775.207336,103.378563 773.017883,101.312172 771.689575,101.193352 
	C766.897461,100.764671 762.001770,100.570602 757.223999,101.058716 
	C732.724365,103.561638 713.391052,113.919785 702.827881,138.276077 
M798.671814,224.531158 
	C808.114868,224.531158 817.557922,224.531158 827.282593,224.531158 
	C827.282593,183.357468 827.282593,142.820786 827.282593,102.060730 
	C815.278137,102.060730 803.520569,102.060730 791.572998,102.060730 
	C791.572998,142.846664 791.572998,183.388107 791.572998,224.531082 
	C793.817017,224.531082 795.771606,224.531082 798.671814,224.531158 
M466.651672,41.151512 
	C459.430023,48.405376 452.208344,55.659241 445.768585,62.127735 
	C452.858154,69.629318 459.459900,76.614700 465.716400,83.234764 
	C479.752319,69.111900 493.664429,55.113628 507.057587,41.637493 
	C500.531281,35.158604 493.623718,28.301233 486.620972,21.349369 
	C486.782867,21.256231 486.445801,21.367382 486.221252,21.591370 
	C479.857819,27.937811 473.505707,34.295620 466.651672,41.151512 
M769.709961,71.438774 
	C770.525208,81.467438 775.924866,86.753349 785.099670,86.504196 
	C793.599976,86.273354 799.230591,80.261261 799.344666,71.294067 
	C799.456482,62.504730 793.896851,56.560677 785.076538,56.039253 
	C776.423218,55.527699 770.656189,61.009674 769.709961,71.438774 
M839.142395,57.066750 
	C834.786926,57.387085 829.980347,56.646439 826.176331,58.263805 
	C819.639404,61.043072 817.316711,68.538963 819.412109,75.758247 
	C821.207947,81.945190 827.882874,86.992264 833.953796,86.753525 
	C840.837891,86.482819 846.756104,81.774544 848.114746,75.487572 
	C849.987671,66.821167 847.347229,60.957958 839.142395,57.066750 
M794.293762,30.383896 
	C794.544678,40.671295 803.782776,45.295349 811.430725,44.007938 
	C819.373596,42.670868 823.478943,35.784462 822.026062,26.511257 
	C820.849182,18.999681 813.619995,14.701960 804.820679,16.282858 
	C798.654541,17.390676 795.710754,21.108250 794.293762,30.383896 
M521.085144,254.263519 
	C520.931091,255.657242 520.777100,257.050964 520.741821,257.369934 
	C516.546448,257.807129 512.784851,257.461700 509.643463,258.695465 
	C504.655853,260.654358 502.234283,266.643646 503.466583,271.582184 
	C505.055847,277.951324 509.352173,281.094238 516.346863,281.004547 
	C522.185547,280.929718 526.499512,277.930634 527.181946,272.022278 
	C527.999146,264.946472 527.834412,257.745270 527.810486,250.599350 
	C527.807495,249.695236 526.191956,248.189941 525.137512,248.000931 
	C520.572144,247.182602 521.106384,250.571121 521.085144,254.263519 
M450.097168,263.981415 
	C449.575348,272.499725 449.053558,281.018066 448.548218,289.267914 
	C459.583984,292.187347 453.682312,282.791779 457.042389,280.970947 
	C461.198273,280.496277 465.618469,280.190430 469.026794,278.174164 
	C473.229614,275.687836 474.091034,270.953918 472.972351,266.175598 
	C471.762665,261.008636 468.135071,258.245117 463.160736,257.445404 
	C457.775055,256.579590 453.310150,258.326630 450.097168,263.981415 
M573.484619,258.809753 
	C572.256165,258.320404 571.065308,257.573395 569.792542,257.387238 
	C564.868713,256.667053 560.408691,257.868652 557.371216,261.948761 
	C554.308899,266.062347 554.434875,270.670166 556.870117,275.091309 
	C559.026367,279.005707 562.383240,281.801849 566.952942,280.839996 
	C570.833679,280.023132 574.388428,278.574524 578.173218,281.017456 
	C578.694458,281.353912 579.924377,280.592377 580.866089,280.327972 
	C580.866089,279.238129 580.970215,278.401184 580.848206,277.598602 
	C580.300354,273.995850 580.134216,270.248627 578.960022,266.854553 
	C577.997070,264.071045 575.807373,261.711884 573.484619,258.809753 
M493.043213,258.157532 
	C485.417938,256.144073 479.273010,258.420563 477.060059,264.078735 
	C474.690247,270.137848 477.219604,277.200104 482.720673,279.883972 
	C488.623749,282.763977 496.068542,280.548431 499.200989,274.979462 
	C502.276276,269.512207 499.907410,262.316528 493.043213,258.157532 
M594.419067,264.022858 
	C596.418823,264.037567 598.465515,264.314758 600.400757,263.968597 
	C601.563843,263.760529 603.487610,262.490997 603.426758,261.855896 
	C603.298462,260.517212 602.234680,258.314545 601.298950,258.174438 
	C597.549927,257.613068 593.492615,256.908447 589.968079,257.840424 
	C587.696594,258.441071 585.332764,261.517975 584.489380,263.989746 
	C583.397278,267.190460 585.700378,269.644531 588.888062,270.785217 
	C591.443481,271.699615 594.045837,272.483124 596.627380,273.324677 
	C593.325073,274.211914 590.158020,273.951874 587.076416,274.350861 
	C585.975769,274.493347 584.333923,276.200958 584.292114,277.248230 
	C584.245178,278.422913 585.669312,280.644318 586.559326,280.699463 
	C590.676636,280.954468 595.041077,281.333374 598.889343,280.206970 
	C601.047180,279.575348 603.053040,276.331940 603.901672,273.846802 
	C604.973572,270.707581 602.629211,268.520935 599.696838,267.470184 
	C597.679382,266.747284 595.528564,266.400208 593.470886,265.774750 
	C593.372925,265.744965 593.600891,264.643066 594.419067,264.022858 
M548.032959,281.061798 
	C552.548035,280.209412 551.646423,277.343597 550.798523,274.505188 
	C546.534851,273.188721 539.715759,276.897980 539.172546,269.863037 
	C538.489380,261.015289 546.959351,265.551483 552.023621,262.931305 
	C550.972778,261.030640 550.423645,258.328033 548.955078,257.666473 
	C541.122070,254.137894 532.077576,260.317963 531.996277,268.913239 
	C531.920044,276.975525 536.926208,281.004211 548.032959,281.061798 
M607.457703,258.332825 
	C607.643555,261.979187 607.882935,265.623779 608.002930,269.272308 
	C608.190918,274.981262 611.230225,278.662903 616.431519,280.312164 
	C618.028564,280.818634 621.242310,280.326263 621.761902,279.300995 
	C622.943420,276.969879 622.212463,274.957062 618.862000,273.855774 
	C617.019470,273.250183 615.723511,270.197540 614.863098,267.983185 
	C614.667542,267.479797 617.381042,265.965088 618.595947,264.755524 
	C619.504578,263.850922 620.740234,262.702026 620.764954,261.637268 
	C620.791626,260.484222 619.671448,258.371002 618.896545,258.296906 
	C615.777527,257.998688 613.923584,257.015198 613.904053,253.544693 
	C613.901001,253.001465 612.599670,252.134537 611.791748,251.981308 
	C607.038208,251.079926 607.199097,254.273819 607.457703,258.332825 
z"/>
<path fill="#FDFEFE" opacity="1.000000" stroke="none" 
	d="
M271.916687,195.074722 
	C256.736694,165.278778 264.811829,130.222626 290.022614,111.478851 
	C305.996735,99.602386 338.502411,94.858604 357.449463,113.634270 
	C357.449463,102.563095 357.449463,92.713806 357.449463,82.864517 
	C357.449463,72.922928 357.449463,62.981342 357.449463,52.768795 
	C369.952454,52.768795 381.849365,52.768795 393.926331,52.768795 
	C394.063293,53.563473 394.270874,54.192848 394.265747,54.820480 
	C393.951904,93.119339 394.149200,131.432358 393.112610,169.711929 
	C392.372589,197.039948 372.589355,218.454681 345.642273,223.928238 
	C328.923218,227.324234 312.795959,225.949860 297.409790,218.725021 
	C286.637878,213.666855 278.152008,205.751541 271.916687,195.074722 
M302.461609,151.231689 
	C302.090027,152.509018 301.628510,153.767792 301.360626,155.066498 
	C298.570038,168.595978 301.511078,186.733749 320.587524,190.524536 
	C325.702209,191.540909 331.208801,191.595444 336.405121,190.983902 
	C347.792542,189.643707 354.955139,182.717896 356.580078,171.455856 
	C357.355621,166.080780 357.394897,160.419601 356.650909,155.042542 
	C355.098541,143.823273 348.314117,137.225357 337.065399,135.490250 
	C332.827148,134.836472 328.407440,134.728043 324.130066,135.085068 
	C314.035522,135.927628 306.641571,140.865799 302.461609,151.231689 
z"/>
<path fill="#FDFEFE" opacity="1.000000" stroke="none" 
	d="
M648.774048,217.785339 
	C621.322632,230.227936 595.250183,228.670517 571.246948,210.680313 
	C558.483337,201.114105 551.646667,186.960159 551.266724,171.363525 
	C550.321533,132.573730 550.729858,93.750916 550.609863,54.941311 
	C550.607910,54.309517 550.798767,53.677128 550.940735,52.787174 
	C562.828064,52.787174 574.555420,52.787174 586.711914,52.787174 
	C586.711914,72.838036 586.711914,92.596001 586.711914,112.972031 
	C587.976135,112.394180 588.772827,112.226120 589.305908,111.757927 
	C604.951965,98.014709 622.776123,98.274979 640.912170,104.692520 
	C666.848938,113.870361 682.217773,141.222916 679.652588,170.685654 
	C677.797241,191.994888 666.642761,206.767426 648.774048,217.785339 
M609.227539,191.488861 
	C633.346252,193.464493 647.431885,180.531723 643.068054,154.557755 
	C640.978943,142.123276 629.048340,134.253723 614.011475,134.592880 
	C596.375244,134.990646 587.067322,144.472717 587.023193,162.087524 
	C587.020691,163.087234 587.020630,164.087067 587.031799,165.086700 
	C587.202454,180.367035 593.355286,187.918304 609.227539,191.488861 
z"/>
<path fill="#FDFEFE" opacity="1.000000" stroke="none" 
	d="
M427.851013,206.143356 
	C403.076721,179.607376 405.475037,122.532028 449.790405,105.677727 
	C472.434326,97.065628 495.072571,97.857483 515.606079,111.920769 
	C536.620605,126.313553 536.633728,155.700287 515.513855,169.423904 
	C508.348663,174.079819 499.496613,176.679230 491.051941,178.698212 
	C478.859314,181.613266 466.582397,180.170990 454.714600,175.930954 
	C453.522430,175.505035 452.247955,175.309586 450.821625,174.960709 
	C453.137634,183.234772 462.060944,189.896118 473.031464,189.836700 
	C487.624573,189.757660 502.211060,188.388016 516.799011,187.547958 
	C518.098145,187.473160 519.386780,187.215515 521.280396,186.962631 
	C521.280396,198.330322 521.280396,209.367371 521.280396,220.939896 
	C514.484558,222.108627 507.676147,223.831711 500.776611,224.356415 
	C484.049652,225.628479 467.243591,227.347885 450.922913,221.178650 
	C442.205811,217.883575 434.542053,213.124725 427.851013,206.143356 
M459.747375,140.084854 
	C457.180725,142.504272 454.614075,144.923691 451.157379,148.182114 
	C463.794586,152.483780 475.233612,152.893265 486.800842,151.102142 
	C490.946289,150.460251 494.656891,148.577774 494.494110,143.505539 
	C494.339233,138.680984 490.494324,136.954285 486.677704,136.513885 
	C477.731476,135.481598 468.725098,135.135223 459.747375,140.084854 
z"/>
<path fill="#FDFEFE" opacity="1.000000" stroke="none" 
	d="
M953.647705,204.993362 
	C953.643982,210.473434 953.643982,215.456223 953.643982,220.851013 
	C926.983398,225.720169 900.810242,230.827393 875.588379,217.533829 
	C856.645569,207.549744 846.252686,191.626724 844.888123,170.000061 
	C843.864807,153.781387 845.969299,138.400467 856.160522,125.056015 
	C867.557617,110.132607 882.974670,102.632317 901.430969,100.944229 
	C917.438721,99.480080 932.555481,102.064400 946.408447,110.729225 
	C967.674988,124.031082 970.366638,157.380630 945.386597,170.968826 
	C926.663391,181.153564 907.204407,182.647430 887.020508,176.119400 
	C885.797974,175.723999 884.560730,175.373901 882.699219,174.812332 
	C884.214722,180.237442 887.339661,183.517136 891.677246,185.859436 
	C898.306763,189.439301 905.468018,190.792099 912.884644,190.439789 
	C926.140259,189.810165 939.382874,188.906982 953.651428,188.057388 
	C953.651428,193.024811 953.651428,198.760452 953.647705,204.993362 
M896.629822,137.919250 
	C891.440369,139.913498 887.217041,143.054993 883.385010,148.886429 
	C889.859253,149.990234 895.324890,151.603317 900.813538,151.685516 
	C907.684814,151.788437 914.634827,150.992401 921.429321,149.857010 
	C924.412354,149.358521 928.034058,146.951797 926.622559,143.268646 
	C925.615967,140.641693 922.445068,137.225327 920.035889,137.055389 
	C912.539612,136.526611 904.946106,137.376358 896.629822,137.919250 
z"/>
<path fill="#FDFEFE" opacity="1.000000" stroke="none" 
	d="
M124.023056,223.044144 
	C101.136612,215.988235 85.160851,202.316315 80.683258,178.411057 
	C76.654732,156.903336 79.339935,136.378098 95.288239,119.752838 
	C108.892715,105.570885 126.242203,100.296776 145.528091,100.624016 
	C160.244980,100.873734 173.756073,104.797112 185.389420,114.151817 
	C201.853226,127.390846 203.308762,157.353790 181.598267,169.963486 
	C162.687164,180.947205 142.845154,183.099854 122.049660,176.253738 
	C120.655602,175.794800 119.243401,175.391006 117.218742,174.771622 
	C118.803581,180.280304 122.027130,183.570724 126.488091,185.979309 
	C133.146179,189.574188 140.335480,190.771484 147.723679,190.430099 
	C160.991028,189.817032 174.242355,188.857269 187.769165,188.025864 
	C187.769165,198.378494 187.769165,209.476898 187.769165,220.864838 
	C166.676315,224.947662 145.734650,228.624588 124.023056,223.044144 
M148.266449,135.994339 
	C144.947769,136.050507 141.596878,135.832169 138.316727,136.216904 
	C130.121094,137.178162 123.404686,140.732956 117.664680,149.249130 
	C126.093216,150.274857 133.186020,151.431381 140.324509,151.918457 
	C146.584656,152.345612 152.985504,152.590698 158.551575,148.609894 
	C162.130814,146.050064 162.624008,141.416763 158.908524,139.182159 
	C156.060135,137.469040 152.456085,137.012299 148.266449,135.994339 
z"/>
<path fill="#FCFDFE" opacity="1.000000" stroke="none" 
	d="
M990.472168,69.499886 
	C1003.234924,48.677189 1022.566895,40.464489 1045.593018,39.137497 
	C1059.479980,38.337196 1059.502075,38.448238 1059.479736,52.399555 
	C1059.468628,59.391708 1059.392944,66.383797 1059.323242,73.375679 
	C1059.320190,73.678780 1059.083374,73.979568 1058.715332,74.848083 
	C1054.688232,74.848083 1050.410156,74.774460 1046.135376,74.860840 
	C1027.665771,75.234039 1017.588623,86.499237 1018.962463,105.752373 
	C1028.816162,105.752373 1038.724976,105.752373 1048.897339,105.752373 
	C1048.897339,117.346199 1048.897339,128.409317 1048.897339,139.996704 
	C1038.864136,139.996704 1028.956543,139.996704 1018.617676,139.996704 
	C1018.617676,168.261093 1018.617676,196.007614 1018.617676,224.133423 
	C1006.447876,224.133423 994.720459,224.133423 982.616333,224.133423 
	C982.490723,222.847565 982.255005,221.589218 982.261230,220.332077 
	C982.462830,179.695892 982.786499,139.059967 982.840515,98.423645 
	C982.854187,88.139427 985.363159,78.713814 990.472168,69.499886 
z"/>
<path fill="#FCFDFE" opacity="1.000000" stroke="none" 
	d="
M59.278984,75.000916 
	C59.278973,124.945274 59.278973,174.389679 59.278973,224.174316 
	C47.177551,224.174316 35.457733,224.174316 23.424667,224.174316 
	C23.424667,167.137344 23.424667,110.248756 23.424667,52.922050 
	C35.075535,52.922050 46.799267,52.922050 59.278999,52.922050 
	C59.278999,59.979000 59.278999,67.239983 59.278984,75.000916 
z"/>
<path fill="#FCFDFE" opacity="1.000000" stroke="none" 
	d="
M702.947266,137.912613 
	C713.391052,113.919785 732.724365,103.561638 757.223999,101.058716 
	C762.001770,100.570602 766.897461,100.764671 771.689575,101.193352 
	C773.017883,101.312172 775.207336,103.378563 775.239685,104.598145 
	C775.521484,115.220047 775.402283,125.852608 775.402283,135.952682 
	C768.996826,136.280502 762.686157,136.203934 756.488342,137.003021 
	C743.176086,138.719360 735.228760,147.555130 735.047119,160.918198 
	C734.786682,180.078171 734.890442,199.243088 734.839905,218.405899 
	C734.835144,220.215790 734.839355,222.025696 734.839355,224.175476 
	C722.398804,224.175476 710.324341,224.175476 697.959229,224.175476 
	C697.959229,216.804443 697.937561,209.659119 697.963745,202.513947 
	C698.014465,188.682693 698.309814,174.847870 698.075256,161.021790 
	C697.938965,152.991043 699.780334,145.551392 702.947266,137.912613 
z"/>
<path fill="#F9FBFD" opacity="1.000000" stroke="none" 
	d="
M798.198975,224.531128 
	C795.771606,224.531082 793.817017,224.531082 791.572998,224.531082 
	C791.572998,183.388107 791.572998,142.846664 791.572998,102.060730 
	C803.520569,102.060730 815.278137,102.060730 827.282593,102.060730 
	C827.282593,142.820786 827.282593,183.357468 827.282593,224.531158 
	C817.557922,224.531158 808.114868,224.531158 798.198975,224.531128 
z"/>
<path fill="#FAFCFD" opacity="1.000000" stroke="none" 
	d="
M466.901703,40.901543 
	C473.505707,34.295620 479.857819,27.937811 486.221252,21.591370 
	C486.445801,21.367382 486.782867,21.256231 486.620972,21.349369 
	C493.623718,28.301233 500.531281,35.158604 507.057587,41.637493 
	C493.664429,55.113628 479.752319,69.111900 465.716400,83.234764 
	C459.459900,76.614700 452.858154,69.629318 445.768585,62.127735 
	C452.208344,55.659241 459.430023,48.405376 466.901703,40.901543 
z"/>
<path fill="#FCFDFE" opacity="1.000000" stroke="none" 
	d="
M769.710266,71.042297 
	C770.656189,61.009674 776.423218,55.527699 785.076538,56.039253 
	C793.896851,56.560677 799.456482,62.504730 799.344666,71.294067 
	C799.230591,80.261261 793.599976,86.273354 785.099670,86.504196 
	C775.924866,86.753349 770.525208,81.467438 769.710266,71.042297 
z"/>
<path fill="#FBFDFE" opacity="1.000000" stroke="none" 
	d="
M839.524841,57.164543 
	C847.347229,60.957958 849.987671,66.821167 848.114746,75.487572 
	C846.756104,81.774544 840.837891,86.482819 833.953796,86.753525 
	C827.882874,86.992264 821.207947,81.945190 819.412109,75.758247 
	C817.316711,68.538963 819.639404,61.043072 826.176331,58.263805 
	C829.980347,56.646439 834.786926,57.387085 839.524841,57.164543 
z"/>
<path fill="#FCFDFE" opacity="1.000000" stroke="none" 
	d="
M794.294983,29.978735 
	C795.710754,21.108250 798.654541,17.390676 804.820679,16.282858 
	C813.619995,14.701960 820.849182,18.999681 822.026062,26.511257 
	C823.478943,35.784462 819.373596,42.670868 811.430725,44.007938 
	C803.782776,45.295349 794.544678,40.671295 794.294983,29.978735 
z"/>
<path fill="#002E4A" opacity="1.000000" stroke="none" 
	d="
M521.088074,253.829025 
	C521.106384,250.571121 520.572144,247.182602 525.137512,248.000931 
	C526.191956,248.189941 527.807495,249.695236 527.810486,250.599350 
	C527.834412,257.745270 527.999146,264.946472 527.181946,272.022278 
	C526.499512,277.930634 522.185547,280.929718 516.346863,281.004547 
	C509.352173,281.094238 505.055847,277.951324 503.466583,271.582184 
	C502.234283,266.643646 504.655853,260.654358 509.643463,258.695465 
	C512.784851,257.461700 516.546448,257.807129 520.741821,257.369934 
	C520.777100,257.050964 520.931091,255.657242 521.088074,253.829025 
M514.728516,274.145721 
	C518.188538,274.480774 521.059509,273.306549 520.840149,269.568512 
	C520.727844,267.654877 518.690063,264.542542 517.199646,264.339355 
	C515.138550,264.058319 511.834839,265.417206 510.747467,267.138000 
	C508.902893,270.057220 510.407928,272.828003 514.728516,274.145721 
z"/>
<path fill="#002E4A" opacity="1.000000" stroke="none" 
	d="
M450.273163,263.625763 
	C453.310150,258.326630 457.775055,256.579590 463.160736,257.445404 
	C468.135071,258.245117 471.762665,261.008636 472.972351,266.175598 
	C474.091034,270.953918 473.229614,275.687836 469.026794,278.174164 
	C465.618469,280.190430 461.198273,280.496277 457.042389,280.970947 
	C453.682312,282.791779 459.583984,292.187347 448.548218,289.267914 
	C449.053558,281.018066 449.575348,272.499725 450.273163,263.625763 
M455.859131,269.454254 
	C456.039886,273.415222 458.690735,275.035553 461.896698,274.024292 
	C463.861542,273.404510 466.228821,270.788391 466.419373,268.870453 
	C466.566864,267.386047 463.880585,264.696014 461.985474,264.140381 
	C458.815033,263.210846 456.051422,264.589996 455.859131,269.454254 
z"/>
<path fill="#002E4A" opacity="1.000000" stroke="none" 
	d="
M573.823059,258.987183 
	C575.807373,261.711884 577.997070,264.071045 578.960022,266.854553 
	C580.134216,270.248627 580.300354,273.995850 580.848206,277.598602 
	C580.970215,278.401184 580.866089,279.238129 580.866089,280.327972 
	C579.924377,280.592377 578.694458,281.353912 578.173218,281.017456 
	C574.388428,278.574524 570.833679,280.023132 566.952942,280.839996 
	C562.383240,281.801849 559.026367,279.005707 556.870117,275.091309 
	C554.434875,270.670166 554.308899,266.062347 557.371216,261.948761 
	C560.408691,257.868652 564.868713,256.667053 569.792542,257.387238 
	C571.065308,257.573395 572.256165,258.320404 573.823059,258.987183 
M562.464172,271.889526 
	C566.222778,275.337708 570.948669,275.190979 572.071838,271.329865 
	C572.595154,269.530731 572.374207,266.477203 571.215332,265.491425 
	C569.792480,264.281036 566.255249,263.628387 565.046570,264.563354 
	C563.393738,265.841827 563.073303,268.842865 562.464172,271.889526 
z"/>
<path fill="#002E4A" opacity="1.000000" stroke="none" 
	d="
M493.401611,258.304626 
	C499.907410,262.316528 502.276276,269.512207 499.200989,274.979462 
	C496.068542,280.548431 488.623749,282.763977 482.720673,279.883972 
	C477.219604,277.200104 474.690247,270.137848 477.060059,264.078735 
	C479.273010,258.420563 485.417938,256.144073 493.401611,258.304626 
M486.912292,264.225342 
	C483.479248,265.126190 482.208496,267.623199 483.268402,270.672546 
	C483.781219,272.147949 485.796295,273.788452 487.357880,274.062561 
	C490.210938,274.563202 493.412292,273.959686 493.669006,270.172302 
	C493.935059,266.246582 492.065948,263.784943 486.912292,264.225342 
z"/>
<path fill="#002E4A" opacity="1.000000" stroke="none" 
	d="
M594.048096,264.031677 
	C593.600891,264.643066 593.372925,265.744965 593.470886,265.774750 
	C595.528564,266.400208 597.679382,266.747284 599.696838,267.470184 
	C602.629211,268.520935 604.973572,270.707581 603.901672,273.846802 
	C603.053040,276.331940 601.047180,279.575348 598.889343,280.206970 
	C595.041077,281.333374 590.676636,280.954468 586.559326,280.699463 
	C585.669312,280.644318 584.245178,278.422913 584.292114,277.248230 
	C584.333923,276.200958 585.975769,274.493347 587.076416,274.350861 
	C590.158020,273.951874 593.325073,274.211914 596.627380,273.324677 
	C594.045837,272.483124 591.443481,271.699615 588.888062,270.785217 
	C585.700378,269.644531 583.397278,267.190460 584.489380,263.989746 
	C585.332764,261.517975 587.696594,258.441071 589.968079,257.840424 
	C593.492615,256.908447 597.549927,257.613068 601.298950,258.174438 
	C602.234680,258.314545 603.298462,260.517212 603.426758,261.855896 
	C603.487610,262.490997 601.563843,263.760529 600.400757,263.968597 
	C598.465515,264.314758 596.418823,264.037567 594.048096,264.031677 
z"/>
<path fill="#002E4A" opacity="1.000000" stroke="none" 
	d="
M547.600464,281.092163 
	C536.926208,281.004211 531.920044,276.975525 531.996277,268.913239 
	C532.077576,260.317963 541.122070,254.137894 548.955078,257.666473 
	C550.423645,258.328033 550.972778,261.030640 552.023621,262.931305 
	C546.959351,265.551483 538.489380,261.015289 539.172546,269.863037 
	C539.715759,276.897980 546.534851,273.188721 550.798523,274.505188 
	C551.646423,277.343597 552.548035,280.209412 547.600464,281.092163 
z"/>
<path fill="#002E4A" opacity="1.000000" stroke="none" 
	d="
M607.437378,257.890503 
	C607.199097,254.273819 607.038208,251.079926 611.791748,251.981308 
	C612.599670,252.134537 613.901001,253.001465 613.904053,253.544693 
	C613.923584,257.015198 615.777527,257.998688 618.896545,258.296906 
	C619.671448,258.371002 620.791626,260.484222 620.764954,261.637268 
	C620.740234,262.702026 619.504578,263.850922 618.595947,264.755524 
	C617.381042,265.965088 614.667542,267.479797 614.863098,267.983185 
	C615.723511,270.197540 617.019470,273.250183 618.862000,273.855774 
	C622.212463,274.957062 622.943420,276.969879 621.761902,279.300995 
	C621.242310,280.326263 618.028564,280.818634 616.431519,280.312164 
	C611.230225,278.662903 608.190918,274.981262 608.002930,269.272308 
	C607.882935,265.623779 607.643555,261.979187 607.437378,257.890503 
z"/>
<path fill="#1070BA" opacity="1.000000" stroke="none" 
	d="
M302.621643,150.872437 
	C306.641571,140.865799 314.035522,135.927628 324.130066,135.085068 
	C328.407440,134.728043 332.827148,134.836472 337.065399,135.490250 
	C348.314117,137.225357 355.098541,143.823273 356.650909,155.042542 
	C357.394897,160.419601 357.355621,166.080780 356.580078,171.455856 
	C354.955139,182.717896 347.792542,189.643707 336.405121,190.983902 
	C331.208801,191.595444 325.702209,191.540909 320.587524,190.524536 
	C301.511078,186.733749 298.570038,168.595978 301.360626,155.066498 
	C301.628510,153.767792 302.090027,152.509018 302.621643,150.872437 
z"/>
<path fill="#1070BA" opacity="1.000000" stroke="none" 
	d="
M608.810730,191.398163 
	C593.355286,187.918304 587.202454,180.367035 587.031799,165.086700 
	C587.020630,164.087067 587.020691,163.087234 587.023193,162.087524 
	C587.067322,144.472717 596.375244,134.990646 614.011475,134.592880 
	C629.048340,134.253723 640.978943,142.123276 643.068054,154.557755 
	C647.431885,180.531723 633.346252,193.464493 608.810730,191.398163 
z"/>
<path fill="#1372BA" opacity="1.000000" stroke="none" 
	d="
M460.078461,139.914902 
	C468.725098,135.135223 477.731476,135.481598 486.677704,136.513885 
	C490.494324,136.954285 494.339233,138.680984 494.494110,143.505539 
	C494.656891,148.577774 490.946289,150.460251 486.800842,151.102142 
	C475.233612,152.893265 463.794586,152.483780 451.157379,148.182114 
	C454.614075,144.923691 457.180725,142.504272 460.078461,139.914902 
z"/>
<path fill="#1372BA" opacity="1.000000" stroke="none" 
	d="
M897.010071,137.805328 
	C904.946106,137.376358 912.539612,136.526611 920.035889,137.055389 
	C922.445068,137.225327 925.615967,140.641693 926.622559,143.268646 
	C928.034058,146.951797 924.412354,149.358521 921.429321,149.857010 
	C914.634827,150.992401 907.684814,151.788437 900.813538,151.685516 
	C895.324890,151.603317 889.859253,149.990234 883.385010,148.886429 
	C887.217041,143.054993 891.440369,139.913498 897.010071,137.805328 
z"/>
<path fill="#1372BA" opacity="1.000000" stroke="none" 
	d="
M148.727295,135.995575 
	C152.456085,137.012299 156.060135,137.469040 158.908524,139.182159 
	C162.624008,141.416763 162.130814,146.050064 158.551575,148.609894 
	C152.985504,152.590698 146.584656,152.345612 140.324509,151.918457 
	C133.186020,151.431381 126.093216,150.274857 117.664680,149.249130 
	C123.404686,140.732956 130.121094,137.178162 138.316727,136.216904 
	C141.596878,135.832169 144.947769,136.050507 148.727295,135.995575 
z"/>
<path fill="#0D6CB4" opacity="1.000000" stroke="none" 
	d="
M514.322266,274.081787 
	C510.407928,272.828003 508.902893,270.057220 510.747467,267.138000 
	C511.834839,265.417206 515.138550,264.058319 517.199646,264.339355 
	C518.690063,264.542542 520.727844,267.654877 520.840149,269.568512 
	C521.059509,273.306549 518.188538,274.480774 514.322266,274.081787 
z"/>
<path fill="#0D6CB4" opacity="1.000000" stroke="none" 
	d="
M455.855042,269.035767 
	C456.051422,264.589996 458.815033,263.210846 461.985474,264.140381 
	C463.880585,264.696014 466.566864,267.386047 466.419373,268.870453 
	C466.228821,270.788391 463.861542,273.404510 461.896698,274.024292 
	C458.690735,275.035553 456.039886,273.415222 455.855042,269.035767 
z"/>
<path fill="#0D6CB4" opacity="1.000000" stroke="none" 
	d="
M562.322998,271.497559 
	C563.073303,268.842865 563.393738,265.841827 565.046570,264.563354 
	C566.255249,263.628387 569.792480,264.281036 571.215332,265.491425 
	C572.374207,266.477203 572.595154,269.530731 572.071838,271.329865 
	C570.948669,275.190979 566.222778,275.337708 562.322998,271.497559 
z"/>
<path fill="#0D6CB4" opacity="1.000000" stroke="none" 
	d="
M487.304565,264.164246 
	C492.065948,263.784943 493.935059,266.246582 493.669006,270.172302 
	C493.412292,273.959686 490.210938,274.563202 487.357880,274.062561 
	C485.796295,273.788452 483.781219,272.147949 483.268402,270.672546 
	C482.208496,267.623199 483.479248,265.126190 487.304565,264.164246 
z"/>
</svg>