<svg version="1.1" id="Layer_1" xmlns="http://www.w3.org/2000/svg" xmlns:xlink="http://www.w3.org/1999/xlink" x="0px" y="0px"
	 width="100%" viewBox="0 0 1080 1080" enable-background="new 0 0 1080 1080" xml:space="preserve">
<path fill="#000000" opacity="1.000000" stroke="none" 
	d="
M1.000000,370.000000 
	C1.000000,246.680847 1.000000,123.861679 1.000000,1.021261 
	C360.944305,1.021261 720.888611,1.021261 1080.916504,1.021261 
	C1080.916504,360.902740 1080.916504,720.805481 1080.916504,1080.854126 
	C721.000061,1080.854126 361.000031,1080.854126 1.000000,1080.854126 
	C1.000000,844.111023 1.000000,607.305481 1.000000,370.000000 
M264.000000,162.511780 
	C263.137726,173.670914 265.545380,184.389496 270.727264,193.998932 
	C281.421997,213.831467 299.228455,224.003906 321.102783,225.773529 
	C343.172180,227.558899 363.636932,222.899643 379.352844,205.257034 
	C388.215302,195.308136 393.027588,183.665878 393.837952,170.720673 
	C394.846649,154.607452 394.838379,138.421097 394.958374,122.263992 
	C395.124207,99.936501 395.005402,77.606842 394.983429,55.278133 
	C394.982361,54.191978 394.741516,53.106064 394.632782,52.192108 
	C381.978058,52.192108 369.692017,52.192108 357.033508,52.192108 
	C357.033508,72.085983 357.033508,91.792671 357.033508,112.650665 
	C348.662598,105.162964 340.000305,101.472786 329.422424,100.685593 
	C317.516785,99.799576 306.439880,101.435738 296.310883,107.096817 
	C275.201294,118.894981 264.610962,137.356766 264.000000,162.511780 
M676.042419,187.624207 
	C676.695618,185.993469 677.514832,184.408127 677.974915,182.724609 
	C680.879944,172.093033 680.748474,161.332825 678.981934,150.562042 
	C676.465698,135.220276 668.978821,122.700066 656.887634,113.019875 
	C647.435730,105.452652 636.637451,102.007828 624.450195,100.687790 
	C611.281494,99.261452 600.255371,102.401169 590.146729,110.347870 
	C589.336853,110.984528 588.445435,111.517456 586.815063,112.627563 
	C586.815063,91.833893 586.815063,71.961472 586.815063,52.348312 
	C574.232239,52.348312 562.158813,52.348312 550.000000,52.348312 
	C550.000000,73.853767 549.870605,95.012054 550.038391,116.167992 
	C550.189636,135.247208 549.825500,154.386017 551.230469,173.384521 
	C552.702271,193.287292 563.070007,208.625870 580.875122,217.840561 
	C594.982239,225.141403 610.144653,227.451660 626.210632,225.140915 
	C649.614380,221.774780 666.411499,210.172073 676.042419,187.624207 
M444.473419,219.043808 
	C453.478516,224.042786 463.440369,225.286148 473.425568,225.928070 
	C488.566620,226.901428 503.529297,224.971542 518.334045,221.900635 
	C519.698975,221.617493 521.814209,220.009293 521.839539,218.973679 
	C522.099304,208.374832 521.998596,197.767166 521.998596,186.888702 
	C516.882568,187.303665 512.260620,187.306458 507.783081,188.112045 
	C494.736877,190.459259 481.613007,191.197342 468.605011,188.830597 
	C460.937042,187.435455 454.518646,183.209015 450.808289,175.631714 
	C456.053467,176.830261 460.776245,178.285278 465.607727,178.947693 
	C485.364105,181.656464 504.024292,179.971603 520.296387,166.439789 
	C529.322388,158.933762 532.677490,149.180908 531.723755,138.535812 
	C530.430237,124.097710 522.374451,113.293015 509.048340,107.044518 
	C495.499237,100.691475 481.328247,98.772476 466.391937,100.882690 
	C453.599457,102.690033 442.057404,107.079674 432.238556,115.345116 
	C411.074158,133.161118 407.481537,163.911865 415.852539,187.406677 
	C420.930603,201.659195 430.504974,211.903091 444.473419,219.043808 
M856.411072,202.941711 
	C858.300842,204.822067 860.190308,206.702682 862.080383,208.582657 
	C873.170532,219.613571 887.105469,224.562836 902.175842,225.843399 
	C918.439636,227.225388 934.642456,225.294205 950.603455,221.879288 
	C951.902466,221.601364 953.824402,219.819183 953.851196,218.697617 
	C954.100891,208.241089 953.999023,197.776169 953.999023,187.111893 
	C945.966431,187.789963 938.325684,188.214951 930.743164,189.125320 
	C918.624207,190.580322 906.611450,191.113297 894.860962,186.968170 
	C889.445007,185.057632 885.300537,180.699188 884.427795,175.866333 
	C885.457886,176.160675 886.330322,176.485870 887.231934,176.655655 
	C895.004639,178.119446 902.853333,181.005356 910.541077,180.630600 
	C920.049927,180.167053 929.745850,177.910446 938.786621,174.773346 
	C952.975708,169.849854 966.164062,157.307266 963.161560,136.231903 
	C960.824402,119.827103 950.698303,110.715675 936.609863,105.131348 
	C924.206482,100.214935 911.252319,98.793976 897.796875,100.850449 
	C886.866943,102.520966 876.953308,106.105171 868.033813,112.483215 
	C855.580627,121.388092 848.146545,133.641373 845.277771,148.516541 
	C843.056702,160.033386 842.861938,171.759155 846.652283,182.963272 
	C848.935730,189.712921 852.783936,195.933228 856.411072,202.941711 
M79.027283,152.922653 
	C79.351021,160.997360 79.285751,169.111008 80.089188,177.137695 
	C81.310944,189.343704 87.000168,199.778687 95.746132,208.029083 
	C108.196907,219.774338 123.485985,225.612244 140.606216,225.913681 
	C149.510040,226.070465 158.452698,225.619293 167.334229,224.902695 
	C173.607056,224.396561 179.816940,223.039276 186.025467,221.901276 
	C186.769669,221.764862 187.814438,220.676178 187.901016,219.933426 
	C189.178482,208.975113 190.022247,198.006485 187.845535,187.111877 
	C180.174286,187.783661 173.033432,188.743576 165.870377,188.955978 
	C155.732330,189.256592 145.332642,190.371811 135.499466,188.606323 
	C125.652061,186.838287 120.517746,183.637085 118.596619,175.882324 
	C129.291901,178.526474 139.601746,181.610229 150.994827,180.295471 
	C162.024994,179.022568 172.323090,176.228012 181.572876,170.615723 
	C195.675552,162.058945 200.333923,149.584625 197.096481,133.254181 
	C193.537689,115.302879 180.226456,107.958961 164.766617,103.067345 
	C153.888107,99.625282 142.671936,98.916634 131.382309,101.010399 
	C118.825089,103.339249 107.309364,107.695213 97.704102,116.666885 
	C87.306686,126.378471 81.411530,138.162338 79.027283,152.922653 
M985.403381,79.077110 
	C984.268921,85.596428 982.200867,92.108803 982.152344,98.636208 
	C981.850037,139.275848 981.997498,179.918839 982.009827,220.560730 
	C982.010315,221.990829 982.158020,223.420898 982.228333,224.693970 
	C994.689331,224.693970 1006.757629,224.693970 1019.201538,224.693970 
	C1019.201538,196.327637 1019.201538,168.265747 1019.201538,139.814453 
	C1029.653198,139.814453 1039.726807,139.814453 1049.712891,139.814453 
	C1049.712891,128.016251 1049.712891,116.614815 1049.712891,104.844696 
	C1039.341431,104.844696 1029.251831,104.844696 1018.524963,104.844696 
	C1019.245667,100.564873 1019.636169,96.690002 1020.576233,92.953415 
	C1023.492554,81.361481 1034.306763,75.707245 1044.634033,75.055435 
	C1049.700562,74.735649 1054.804199,75.000015 1059.671509,75.000015 
	C1059.671509,62.598576 1059.671509,50.862640 1059.671509,39.163475 
	C1018.995117,35.825024 994.225403,53.785091 985.403381,79.077110 
M60.000000,122.500000 
	C60.000000,99.072311 60.000000,75.644623 60.000000,52.288834 
	C47.354038,52.288834 35.282104,52.288834 23.285959,52.288834 
	C23.285959,109.978607 23.285959,167.379105 23.285959,224.711182 
	C35.645950,224.711182 47.717880,224.711182 60.000000,224.711182 
	C60.000000,190.781860 60.000000,157.140930 60.000000,122.500000 
M763.516602,100.000008 
	C758.195740,100.668297 752.802185,100.984428 747.566528,102.065414 
	C724.051331,106.920425 707.577576,120.082329 700.324768,143.451233 
	C698.905334,148.024704 698.232483,152.974213 698.101257,157.774490 
	C697.782715,169.425537 698.165588,181.094543 697.925598,192.749298 
	C697.705933,203.421707 697.040161,214.084961 696.572510,224.718475 
	C709.972961,224.718475 722.373779,224.718475 735.000000,224.718475 
	C735.000000,204.639984 734.895935,184.841156 735.084412,165.045120 
	C735.123901,160.895294 735.609924,156.532715 736.981445,152.654068 
	C740.815002,141.812546 749.444092,137.464294 760.383301,137.034195 
	C765.473267,136.834076 770.577637,137.000000 775.998962,137.000000 
	C775.998962,125.803352 776.064453,115.004913 775.897217,104.210098 
	C775.880554,103.134720 774.612366,101.376266 773.640930,101.148956 
	C770.651123,100.449341 767.523315,100.339203 763.516602,100.000008 
M791.000000,145.500000 
	C791.000000,171.926590 791.000000,198.353165 791.000000,224.713013 
	C803.642822,224.713013 815.714417,224.713013 827.715454,224.713013 
	C827.715454,183.358810 827.715454,142.291611 827.715454,101.286942 
	C815.357239,101.286942 803.285706,101.286942 791.000000,101.286942 
	C791.000000,115.881927 791.000000,130.190964 791.000000,145.500000 
M486.500031,65.000023 
	C494.120941,57.398045 501.741852,49.796070 508.666931,42.888195 
	C500.920013,35.143230 493.570312,27.795349 486.969116,21.195820 
	C473.061676,35.081177 458.740601,49.379524 444.416626,63.680759 
	C451.551697,70.477127 459.078918,77.646973 466.661224,84.869316 
	C473.061951,78.458481 479.531006,71.979248 486.500031,65.000023 
M792.309143,85.134232 
	C796.473450,83.009895 798.614990,79.629410 799.620178,75.023361 
	C800.951477,68.923058 798.740540,61.040356 792.596191,57.869190 
	C785.888733,54.407444 777.973572,55.334049 772.927002,60.582634 
	C768.555054,65.129616 767.787354,73.979172 770.958374,79.490379 
	C774.215210,85.150787 782.254944,89.269447 792.309143,85.134232 
M836.180237,56.000072 
	C835.350220,56.000050 834.508667,56.090031 833.691895,55.986069 
	C825.613037,54.957844 818.007385,61.196949 818.133728,70.715775 
	C818.254639,79.824173 823.971924,86.593155 833.701599,87.026840 
	C839.826538,87.299835 848.047607,83.004837 848.889832,74.378372 
	C849.672546,66.361404 848.898682,58.231510 836.180237,56.000072 
M797.040894,19.622208 
	C796.027222,23.260136 794.436890,26.850580 794.132568,30.546911 
	C793.652832,36.374203 797.990845,42.469006 802.761963,43.913540 
	C810.253784,46.181805 817.362244,44.048561 820.835754,38.489555 
	C824.131531,33.214939 823.650146,24.774698 819.798645,20.305811 
	C814.854248,14.568797 805.701843,14.048831 797.040894,19.622208 
M453.339478,289.986511 
	C454.224030,288.916229 455.622498,287.954773 455.877472,286.751099 
	C456.301880,284.747498 455.993164,282.588593 455.993164,280.397583 
	C467.302856,282.120300 471.858063,279.660339 473.778137,271.274841 
	C475.179321,265.155457 470.275940,258.267609 463.678894,257.088287 
	C456.243225,255.759079 449.621521,260.020233 449.043335,266.778717 
	C448.509094,273.023804 448.447510,279.308624 447.954956,285.558380 
	C447.678955,289.059937 448.956116,290.520325 453.339478,289.986511 
M509.132812,258.312195 
	C504.016327,261.650513 501.402924,267.184387 503.332581,272.297729 
	C505.879242,279.045990 508.195740,281.598816 517.431519,281.028229 
	C522.533142,280.713074 527.108215,277.758423 527.510864,272.535980 
	C528.153687,264.199066 527.682861,255.776230 527.682861,247.366699 
	C525.298340,247.366699 523.398010,247.366699 520.901855,247.366699 
	C520.901855,251.219269 520.901855,254.732666 520.901855,257.820374 
	C516.783081,257.820374 513.270935,257.820374 509.132812,258.312195 
M559.065979,278.559601 
	C563.649780,282.400177 568.490845,281.468536 571.975891,279.929871 
	C575.653198,280.672302 578.067444,281.159729 580.481750,281.647156 
	C580.654663,279.689087 580.837646,277.731781 580.993469,275.772369 
	C581.032898,275.276459 581.110657,274.731964 580.959534,274.280487 
	C579.316101,269.369568 578.756470,263.547668 575.677917,259.800995 
	C571.625610,254.869263 562.213379,256.170624 557.656555,260.852081 
	C553.476624,265.146332 553.852356,272.678375 559.065979,278.559601 
M500.882568,271.946625 
	C501.477509,265.625916 499.796722,260.328033 493.454651,257.854340 
	C488.787811,256.034058 483.988434,256.308411 479.927429,259.637085 
	C475.615173,263.171692 474.711639,268.062317 476.899384,274.067535 
	C478.478973,278.403412 483.704681,281.975708 488.482178,281.985565 
	C493.801178,281.996521 498.571503,278.354645 500.882568,271.946625 
M584.000793,264.505859 
	C584.152344,272.563202 591.613403,271.181213 597.330933,274.349213 
	C592.090698,274.349213 588.195190,274.349213 584.234131,274.349213 
	C584.234131,276.697052 584.234131,278.481781 584.234131,281.063812 
	C588.777893,281.063812 593.113525,281.270905 597.420105,281.005920 
	C601.772644,280.738068 604.624390,278.246033 604.879089,273.790710 
	C605.116394,269.639893 601.505615,266.648346 596.252869,265.983673 
	C595.044556,265.830750 593.867065,265.434021 592.675415,265.149506 
	C592.772522,264.755066 592.869690,264.360626 592.966797,263.966187 
	C596.459717,264.300171 599.952637,264.634186 603.398132,264.963654 
	C604.455383,258.155670 603.759644,257.248596 597.760925,257.014954 
	C595.765930,256.937256 593.765198,257.019318 591.767456,256.996735 
	C587.196960,256.945038 584.773743,259.361633 584.000793,264.505859 
M541.789673,265.099976 
	C545.081726,264.851166 548.373779,264.602386 552.669617,264.277740 
	C551.819702,261.697784 551.174500,257.683044 550.374634,257.652008 
	C545.892334,257.477936 540.857300,257.170349 536.990845,258.990112 
	C531.673401,261.492798 530.276794,269.512604 532.922119,274.806763 
	C535.377319,279.720367 542.997131,283.254700 548.148621,281.807159 
	C552.115112,280.692535 552.733032,278.036591 551.276794,273.989166 
	C549.048645,273.989166 546.648865,274.413269 544.500488,273.860413 
	C542.647400,273.383545 540.395264,272.138885 539.613708,270.583405 
	C539.036011,269.433624 540.538879,267.238464 541.789673,265.099976 
M607.000000,259.492065 
	C607.001404,261.319702 606.841797,263.164398 607.033325,264.971893 
	C607.700012,271.263580 608.204346,277.792542 615.315063,280.542542 
	C617.320679,281.318207 620.601929,282.109528 621.683777,281.123077 
	C623.045227,279.881866 622.749146,276.822662 623.168213,274.547913 
	C622.529846,274.834015 621.891479,275.120117 621.253113,275.406219 
	C619.180054,273.323364 616.307434,271.534668 615.385315,269.028351 
	C614.951538,267.849060 618.267700,265.290131 619.884583,263.356384 
	C620.174927,263.582031 620.465271,263.807709 620.755615,264.033386 
	C620.755615,262.250854 620.755615,260.468323 620.755615,258.128174 
	C615.471375,258.841187 614.721863,255.265656 614.599487,251.345627 
	C612.005005,251.345627 609.775391,251.345627 607.000000,251.345627 
	C607.000000,253.965439 607.000000,256.249512 607.000000,259.492065 
z"/>
<path fill="#FFFFFF" opacity="1.000000" stroke="none" 
	d="
M264.000000,162.022598 
	C264.610962,137.356766 275.201294,118.894981 296.310883,107.096817 
	C306.439880,101.435738 317.516785,99.799576 329.422424,100.685593 
	C340.000305,101.472786 348.662598,105.162964 357.033508,112.650665 
	C357.033508,91.792671 357.033508,72.085983 357.033508,52.192108 
	C369.692017,52.192108 381.978058,52.192108 394.632782,52.192108 
	C394.741516,53.106064 394.982361,54.191978 394.983429,55.278133 
	C395.005402,77.606842 395.124207,99.936501 394.958374,122.263992 
	C394.838379,138.421097 394.846649,154.607452 393.837952,170.720673 
	C393.027588,183.665878 388.215302,195.308136 379.352844,205.257034 
	C363.636932,222.899643 343.172180,227.558899 321.102783,225.773529 
	C299.228455,224.003906 281.421997,213.831467 270.727264,193.998932 
	C265.545380,184.389496 263.137726,173.670914 264.000000,162.022598 
M329.523346,191.000000 
	C331.352905,190.999985 333.244324,191.303314 335.000824,190.945053 
	C341.111450,189.698715 346.981445,188.155060 351.097290,182.645584 
	C358.194519,173.145279 358.149017,162.678177 355.460144,152.027740 
	C351.031128,134.484695 330.034088,132.146210 316.883484,137.197235 
	C303.560730,142.314362 298.415771,156.183517 302.028076,172.406433 
	C304.530029,183.642624 314.132660,191.011948 329.523346,191.000000 
z"/>
<path fill="#FFFFFF" opacity="1.000000" stroke="none" 
	d="
M676.021851,188.026428 
	C666.411499,210.172073 649.614380,221.774780 626.210632,225.140915 
	C610.144653,227.451660 594.982239,225.141403 580.875122,217.840561 
	C563.070007,208.625870 552.702271,193.287292 551.230469,173.384521 
	C549.825500,154.386017 550.189636,135.247208 550.038391,116.167992 
	C549.870605,95.012054 550.000000,73.853767 550.000000,52.348312 
	C562.158813,52.348312 574.232239,52.348312 586.815063,52.348312 
	C586.815063,71.961472 586.815063,91.833893 586.815063,112.627563 
	C588.445435,111.517456 589.336853,110.984528 590.146729,110.347870 
	C600.255371,102.401169 611.281494,99.261452 624.450195,100.687790 
	C636.637451,102.007828 647.435730,105.452652 656.887634,113.019875 
	C668.978821,122.700066 676.465698,135.220276 678.981934,150.562042 
	C680.748474,161.332825 680.879944,172.093033 677.974915,182.724609 
	C677.514832,184.408127 676.695618,185.993469 676.021851,188.026428 
M607.537415,135.929214 
	C601.276184,137.038605 595.799438,139.529404 592.014465,144.899292 
	C585.549072,154.072113 587.795593,164.298157 588.917603,174.222549 
	C589.249939,177.162369 591.272217,180.217590 593.255920,182.609726 
	C600.766663,191.666794 611.186279,192.069534 621.560425,190.607010 
	C629.016418,189.555862 635.395447,185.768021 639.608643,178.970901 
	C643.279785,173.048141 643.106262,166.580002 643.014832,160.037537 
	C642.875732,150.075211 638.601746,142.749329 629.612000,138.206223 
	C622.771057,134.749054 615.547180,134.549561 607.537415,135.929214 
z"/>
<path fill="#FFFFFF" opacity="1.000000" stroke="none" 
	d="
M444.087219,219.008209 
	C430.504974,211.903091 420.930603,201.659195 415.852539,187.406677 
	C407.481537,163.911865 411.074158,133.161118 432.238556,115.345116 
	C442.057404,107.079674 453.599457,102.690033 466.391937,100.882690 
	C481.328247,98.772476 495.499237,100.691475 509.048340,107.044518 
	C522.374451,113.293015 530.430237,124.097710 531.723755,138.535812 
	C532.677490,149.180908 529.322388,158.933762 520.296387,166.439789 
	C504.024292,179.971603 485.364105,181.656464 465.607727,178.947693 
	C460.776245,178.285278 456.053467,176.830261 450.808289,175.631714 
	C454.518646,183.209015 460.937042,187.435455 468.605011,188.830597 
	C481.613007,191.197342 494.736877,190.459259 507.783081,188.112045 
	C512.260620,187.306458 516.882568,187.303665 521.998596,186.888702 
	C521.998596,197.767166 522.099304,208.374832 521.839539,218.973679 
	C521.814209,220.009293 519.698975,221.617493 518.334045,221.900635 
	C503.529297,224.971542 488.566620,226.901428 473.425568,225.928070 
	C463.440369,225.286148 453.478516,224.042786 444.087219,219.008209 
M478.984406,151.520569 
	C481.260681,151.346817 483.575348,151.376038 485.804749,150.954437 
	C489.706024,150.216660 493.367157,148.904160 493.977875,144.183197 
	C494.520844,139.985962 491.324707,137.974915 488.326691,137.280807 
	C480.525024,135.474457 472.394562,135.761627 464.924805,138.310318 
	C460.406891,139.851822 456.747711,143.910141 452.702698,146.837646 
	C452.914490,147.687561 453.126312,148.537476 453.338104,149.387405 
	C461.618195,150.246567 469.898285,151.105743 478.984406,151.520569 
z"/>
<path fill="#FFFFFF" opacity="1.000000" stroke="none" 
	d="
M856.170044,202.666565 
	C852.783936,195.933228 848.935730,189.712921 846.652283,182.963272 
	C842.861938,171.759155 843.056702,160.033386 845.277771,148.516541 
	C848.146545,133.641373 855.580627,121.388092 868.033813,112.483215 
	C876.953308,106.105171 886.866943,102.520966 897.796875,100.850449 
	C911.252319,98.793976 924.206482,100.214935 936.609863,105.131348 
	C950.698303,110.715675 960.824402,119.827103 963.161560,136.231903 
	C966.164062,157.307266 952.975708,169.849854 938.786621,174.773346 
	C929.745850,177.910446 920.049927,180.167053 910.541077,180.630600 
	C902.853333,181.005356 895.004639,178.119446 887.231934,176.655655 
	C886.330322,176.485870 885.457886,176.160675 884.427795,175.866333 
	C885.300537,180.699188 889.445007,185.057632 894.860962,186.968170 
	C906.611450,191.113297 918.624207,190.580322 930.743164,189.125320 
	C938.325684,188.214951 945.966431,187.789963 953.999023,187.111893 
	C953.999023,197.776169 954.100891,208.241089 953.851196,218.697617 
	C953.824402,219.819183 951.902466,221.601364 950.603455,221.879288 
	C934.642456,225.294205 918.439636,227.225388 902.175842,225.843399 
	C887.105469,224.562836 873.170532,219.613571 862.080383,208.582657 
	C860.190308,206.702682 858.300842,204.822067 856.170044,202.666565 
M887.759644,149.005417 
	C897.741089,151.702194 907.890991,153.098785 918.055786,150.765793 
	C920.962891,150.098572 924.459717,147.768402 925.729492,145.224213 
	C927.485962,141.704910 923.700562,137.376831 919.017212,137.084015 
	C913.395752,136.732559 907.712891,136.684250 902.098022,137.084869 
	C895.713928,137.540375 890.572144,140.980362 886.230530,145.479675 
	C885.762451,145.964722 886.675476,147.782501 887.759644,149.005417 
z"/>
<path fill="#FFFFFF" opacity="1.000000" stroke="none" 
	d="
M79.213837,152.501648 
	C81.411530,138.162338 87.306686,126.378471 97.704102,116.666885 
	C107.309364,107.695213 118.825089,103.339249 131.382309,101.010399 
	C142.671936,98.916634 153.888107,99.625282 164.766617,103.067345 
	C180.226456,107.958961 193.537689,115.302879 197.096481,133.254181 
	C200.333923,149.584625 195.675552,162.058945 181.572876,170.615723 
	C172.323090,176.228012 162.024994,179.022568 150.994827,180.295471 
	C139.601746,181.610229 129.291901,178.526474 118.596619,175.882324 
	C120.517746,183.637085 125.652061,186.838287 135.499466,188.606323 
	C145.332642,190.371811 155.732330,189.256592 165.870377,188.955978 
	C173.033432,188.743576 180.174286,187.783661 187.845535,187.111877 
	C190.022247,198.006485 189.178482,208.975113 187.901016,219.933426 
	C187.814438,220.676178 186.769669,221.764862 186.025467,221.901276 
	C179.816940,223.039276 173.607056,224.396561 167.334229,224.902695 
	C158.452698,225.619293 149.510040,226.070465 140.606216,225.913681 
	C123.485985,225.612244 108.196907,219.774338 95.746132,208.029083 
	C87.000168,199.778687 81.310944,189.343704 80.089188,177.137695 
	C79.285751,169.111008 79.351021,160.997360 79.213837,152.501648 
M157.220444,148.978134 
	C158.474365,147.022507 161.210281,144.345856 160.680923,143.257828 
	C159.493042,140.816238 156.983658,138.061310 154.481949,137.379242 
	C143.093781,134.274292 126.887627,136.531235 119.197914,147.812775 
	C119.863838,148.209213 120.479179,148.827408 121.183456,148.955109 
	C127.058624,150.020447 132.947906,151.763840 138.837402,151.781143 
	C144.698730,151.798355 150.565231,150.054871 157.220444,148.978134 
z"/>
<path fill="#FFFFFF" opacity="1.000000" stroke="none" 
	d="
M985.678406,78.774231 
	C994.225403,53.785091 1018.995117,35.825024 1059.671509,39.163475 
	C1059.671509,50.862640 1059.671509,62.598576 1059.671509,75.000015 
	C1054.804199,75.000015 1049.700562,74.735649 1044.634033,75.055435 
	C1034.306763,75.707245 1023.492554,81.361481 1020.576233,92.953415 
	C1019.636169,96.690002 1019.245667,100.564873 1018.524963,104.844696 
	C1029.251831,104.844696 1039.341431,104.844696 1049.712891,104.844696 
	C1049.712891,116.614815 1049.712891,128.016251 1049.712891,139.814453 
	C1039.726807,139.814453 1029.653198,139.814453 1019.201538,139.814453 
	C1019.201538,168.265747 1019.201538,196.327637 1019.201538,224.693970 
	C1006.757629,224.693970 994.689331,224.693970 982.228333,224.693970 
	C982.158020,223.420898 982.010315,221.990829 982.009827,220.560730 
	C981.997498,179.918839 981.850037,139.275848 982.152344,98.636208 
	C982.200867,92.108803 984.268921,85.596428 985.678406,78.774231 
z"/>
<path fill="#FFFFFF" opacity="1.000000" stroke="none" 
	d="
M60.000000,123.000000 
	C60.000000,157.140930 60.000000,190.781860 60.000000,224.711182 
	C47.717880,224.711182 35.645950,224.711182 23.285959,224.711182 
	C23.285959,167.379105 23.285959,109.978607 23.285959,52.288834 
	C35.282104,52.288834 47.354038,52.288834 60.000000,52.288834 
	C60.000000,75.644623 60.000000,99.072311 60.000000,123.000000 
z"/>
<path fill="#FFFFFF" opacity="1.000000" stroke="none" 
	d="
M763.982910,100.000000 
	C767.523315,100.339203 770.651123,100.449341 773.640930,101.148956 
	C774.612366,101.376266 775.880554,103.134720 775.897217,104.210098 
	C776.064453,115.004913 775.998962,125.803352 775.998962,137.000000 
	C770.577637,137.000000 765.473267,136.834076 760.383301,137.034195 
	C749.444092,137.464294 740.815002,141.812546 736.981445,152.654068 
	C735.609924,156.532715 735.123901,160.895294 735.084412,165.045120 
	C734.895935,184.841156 735.000000,204.639984 735.000000,224.718475 
	C722.373779,224.718475 709.972961,224.718475 696.572510,224.718475 
	C697.040161,214.084961 697.705933,203.421707 697.925598,192.749298 
	C698.165588,181.094543 697.782715,169.425537 698.101257,157.774490 
	C698.232483,152.974213 698.905334,148.024704 700.324768,143.451233 
	C707.577576,120.082329 724.051331,106.920425 747.566528,102.065414 
	C752.802185,100.984428 758.195740,100.668297 763.982910,100.000000 
z"/>
<path fill="#FFFFFF" opacity="1.000000" stroke="none" 
	d="
M791.000000,145.000000 
	C791.000000,130.190964 791.000000,115.881927 791.000000,101.286942 
	C803.285706,101.286942 815.357239,101.286942 827.715454,101.286942 
	C827.715454,142.291611 827.715454,183.358810 827.715454,224.713013 
	C815.714417,224.713013 803.642822,224.713013 791.000000,224.713013 
	C791.000000,198.353165 791.000000,171.926590 791.000000,145.000000 
z"/>
<path fill="#FFFFFF" opacity="1.000000" stroke="none" 
	d="
M486.250031,65.250023 
	C479.531006,71.979248 473.061951,78.458481 466.661224,84.869316 
	C459.078918,77.646973 451.551697,70.477127 444.416626,63.680759 
	C458.740601,49.379524 473.061676,35.081177 486.969116,21.195820 
	C493.570312,27.795349 500.920013,35.143230 508.666931,42.888195 
	C501.741852,49.796070 494.120941,57.398045 486.250031,65.250023 
z"/>
<path fill="#FFFFFF" opacity="1.000000" stroke="none" 
	d="
M792.047607,85.438370 
	C782.254944,89.269447 774.215210,85.150787 770.958374,79.490379 
	C767.787354,73.979172 768.555054,65.129616 772.927002,60.582634 
	C777.973572,55.334049 785.888733,54.407444 792.596191,57.869190 
	C798.740540,61.040356 800.951477,68.923058 799.620178,75.023361 
	C798.614990,79.629410 796.473450,83.009895 792.047607,85.438370 
z"/>
<path fill="#FFFFFF" opacity="1.000000" stroke="none" 
	d="
M836.621399,56.000595 
	C848.898682,58.231510 849.672546,66.361404 848.889832,74.378372 
	C848.047607,83.004837 839.826538,87.299835 833.701599,87.026840 
	C823.971924,86.593155 818.254639,79.824173 818.133728,70.715775 
	C818.007385,61.196949 825.613037,54.957844 833.691895,55.986069 
	C834.508667,56.090031 835.350220,56.000050 836.621399,56.000595 
z"/>
<path fill="#FFFFFF" opacity="1.000000" stroke="none" 
	d="
M797.316040,19.333172 
	C805.701843,14.048831 814.854248,14.568797 819.798645,20.305811 
	C823.650146,24.774698 824.131531,33.214939 820.835754,38.489555 
	C817.362244,44.048561 810.253784,46.181805 802.761963,43.913540 
	C797.990845,42.469006 793.652832,36.374203 794.132568,30.546911 
	C794.436890,26.850580 796.027222,23.260136 797.316040,19.333172 
z"/>
<path fill="#002B45" opacity="1.000000" stroke="none" 
	d="
M452.887665,289.992249 
	C448.956116,290.520325 447.678955,289.059937 447.954956,285.558380 
	C448.447510,279.308624 448.509094,273.023804 449.043335,266.778717 
	C449.621521,260.020233 456.243225,255.759079 463.678894,257.088287 
	C470.275940,258.267609 475.179321,265.155457 473.778137,271.274841 
	C471.858063,279.660339 467.302856,282.120300 455.993164,280.397583 
	C455.993164,282.588593 456.301880,284.747498 455.877472,286.751099 
	C455.622498,287.954773 454.224030,288.916229 452.887665,289.992249 
M457.649292,272.996429 
	C461.007019,274.639526 464.393494,274.982056 465.680023,270.788605 
	C466.208282,269.066864 465.171967,265.974091 463.767822,264.831055 
	C462.634674,263.908600 458.726135,264.278992 458.098389,265.316254 
	C456.975830,267.171082 457.397339,269.960358 457.649292,272.996429 
z"/>
<path fill="#002B45" opacity="1.000000" stroke="none" 
	d="
M509.445801,258.066284 
	C513.270935,257.820374 516.783081,257.820374 520.901855,257.820374 
	C520.901855,254.732666 520.901855,251.219269 520.901855,247.366699 
	C523.398010,247.366699 525.298340,247.366699 527.682861,247.366699 
	C527.682861,255.776230 528.153687,264.199066 527.510864,272.535980 
	C527.108215,277.758423 522.533142,280.713074 517.431519,281.028229 
	C508.195740,281.598816 505.879242,279.045990 503.332581,272.297729 
	C501.402924,267.184387 504.016327,261.650513 509.445801,258.066284 
M510.256226,269.364227 
	C510.813690,270.367798 511.132385,271.849060 511.979797,272.272675 
	C513.598755,273.081970 515.901794,274.130005 517.216492,273.531586 
	C518.837830,272.793579 520.731506,270.443512 520.677246,268.852570 
	C520.622314,267.242920 518.595703,264.810669 516.965149,264.332062 
	C513.686707,263.369781 511.400024,265.463562 510.256226,269.364227 
z"/>
<path fill="#002B45" opacity="1.000000" stroke="none" 
	d="
M558.789185,278.284729 
	C553.852356,272.678375 553.476624,265.146332 557.656555,260.852081 
	C562.213379,256.170624 571.625610,254.869263 575.677917,259.800995 
	C578.756470,263.547668 579.316101,269.369568 580.959534,274.280487 
	C581.110657,274.731964 581.032898,275.276459 580.993469,275.772369 
	C580.837646,277.731781 580.654663,279.689087 580.481689,281.647156 
	C578.067444,281.159729 575.653198,280.672302 571.975891,279.929871 
	C568.490845,281.468536 563.649780,282.400177 558.789185,278.284729 
M562.092468,269.556671 
	C562.738159,273.210083 565.157593,275.077271 568.424561,273.710327 
	C570.087646,273.014435 571.489075,270.184357 571.727051,268.167786 
	C571.865906,266.990570 569.704407,264.811157 568.177185,264.314240 
	C564.565369,263.139160 563.381592,266.193085 562.092468,269.556671 
z"/>
<path fill="#002B45" opacity="1.000000" stroke="none" 
	d="
M500.753967,272.330750 
	C498.571503,278.354645 493.801178,281.996521 488.482178,281.985565 
	C483.704681,281.975708 478.478973,278.403412 476.899384,274.067535 
	C474.711639,268.062317 475.615173,263.171692 479.927429,259.637085 
	C483.988434,256.308411 488.787811,256.034058 493.454651,257.854340 
	C499.796722,260.328033 501.477509,265.625916 500.753967,272.330750 
M483.520721,271.003510 
	C485.502594,271.978821 487.431183,273.499237 489.488739,273.700317 
	C490.523560,273.801483 492.376495,271.689148 492.827148,270.253693 
	C493.622192,267.721191 492.918701,264.949341 489.828033,264.567047 
	C485.893311,264.080414 483.217773,265.851288 483.520721,271.003510 
z"/>
<path fill="#002B45" opacity="1.000000" stroke="none" 
	d="
M584.002136,264.103577 
	C584.773743,259.361633 587.196960,256.945038 591.767456,256.996735 
	C593.765198,257.019318 595.765930,256.937256 597.760925,257.014954 
	C603.759644,257.248596 604.455383,258.155670 603.398132,264.963654 
	C599.952637,264.634186 596.459717,264.300171 592.966797,263.966187 
	C592.869690,264.360626 592.772522,264.755066 592.675415,265.149506 
	C593.867065,265.434021 595.044556,265.830750 596.252869,265.983673 
	C601.505615,266.648346 605.116394,269.639893 604.879089,273.790710 
	C604.624390,278.246033 601.772644,280.738068 597.420105,281.005920 
	C593.113525,281.270905 588.777893,281.063812 584.234131,281.063812 
	C584.234131,278.481781 584.234131,276.697052 584.234131,274.349213 
	C588.195190,274.349213 592.090698,274.349213 597.330933,274.349213 
	C591.613403,271.181213 584.152344,272.563202 584.002136,264.103577 
z"/>
<path fill="#002B45" opacity="1.000000" stroke="none" 
	d="
M541.452271,265.304504 
	C540.538879,267.238464 539.036011,269.433624 539.613708,270.583405 
	C540.395264,272.138885 542.647400,273.383545 544.500488,273.860413 
	C546.648865,274.413269 549.048645,273.989166 551.276794,273.989166 
	C552.733032,278.036591 552.115112,280.692535 548.148621,281.807159 
	C542.997131,283.254700 535.377319,279.720367 532.922119,274.806763 
	C530.276794,269.512604 531.673401,261.492798 536.990845,258.990112 
	C540.857300,257.170349 545.892334,257.477936 550.374634,257.652008 
	C551.174500,257.683044 551.819702,261.697784 552.669617,264.277740 
	C548.373779,264.602386 545.081726,264.851166 541.452271,265.304504 
z"/>
<path fill="#002B45" opacity="1.000000" stroke="none" 
	d="
M607.000000,259.012817 
	C607.000000,256.249512 607.000000,253.965439 607.000000,251.345627 
	C609.775391,251.345627 612.005005,251.345627 614.599487,251.345627 
	C614.721863,255.265656 615.471375,258.841187 620.755615,258.128174 
	C620.755615,260.468323 620.755615,262.250854 620.755615,264.033386 
	C620.465271,263.807709 620.174927,263.582031 619.884583,263.356384 
	C618.267700,265.290131 614.951538,267.849060 615.385315,269.028351 
	C616.307434,271.534668 619.180054,273.323364 621.253113,275.406219 
	C621.891479,275.120117 622.529846,274.834015 623.168213,274.547913 
	C622.749146,276.822662 623.045227,279.881866 621.683777,281.123077 
	C620.601929,282.109528 617.320679,281.318207 615.315063,280.542542 
	C608.204346,277.792542 607.700012,271.263580 607.033325,264.971893 
	C606.841797,263.164398 607.001404,261.319702 607.000000,259.012817 
z"/>
<path fill="#000000" opacity="1.000000" stroke="none" 
	d="
M329.050049,191.000000 
	C314.132660,191.011948 304.530029,183.642624 302.028076,172.406433 
	C298.415771,156.183517 303.560730,142.314362 316.883484,137.197235 
	C330.034088,132.146210 351.031128,134.484695 355.460144,152.027740 
	C358.149017,162.678177 358.194519,173.145279 351.097290,182.645584 
	C346.981445,188.155060 341.111450,189.698715 335.000824,190.945053 
	C333.244324,191.303314 331.352905,190.999985 329.050049,191.000000 
z"/>
<path fill="#000000" opacity="1.000000" stroke="none" 
	d="
M607.851807,135.618835 
	C615.547180,134.549561 622.771057,134.749054 629.612000,138.206223 
	C638.601746,142.749329 642.875732,150.075211 643.014832,160.037537 
	C643.106262,166.580002 643.279785,173.048141 639.608643,178.970901 
	C635.395447,185.768021 629.016418,189.555862 621.560425,190.607010 
	C611.186279,192.069534 600.766663,191.666794 593.255920,182.609726 
	C591.272217,180.217590 589.249939,177.162369 588.917603,174.222549 
	C587.795593,164.298157 585.549072,154.072113 592.014465,144.899292 
	C595.799438,139.529404 601.276184,137.038605 607.851807,135.618835 
z"/>
<path fill="#000000" opacity="1.000000" stroke="none" 
	d="
M478.581390,151.742737 
	C469.898285,151.105743 461.618195,150.246567 453.338104,149.387405 
	C453.126312,148.537476 452.914490,147.687561 452.702698,146.837646 
	C456.747711,143.910141 460.406891,139.851822 464.924805,138.310318 
	C472.394562,135.761627 480.525024,135.474457 488.326691,137.280807 
	C491.324707,137.974915 494.520844,139.985962 493.977875,144.183197 
	C493.367157,148.904160 489.706024,150.216660 485.804749,150.954437 
	C483.575348,151.376038 481.260681,151.346817 478.581390,151.742737 
z"/>
<path fill="#000000" opacity="1.000000" stroke="none" 
	d="
M887.353760,148.993759 
	C886.675476,147.782501 885.762451,145.964722 886.230530,145.479675 
	C890.572144,140.980362 895.713928,137.540375 902.098022,137.084869 
	C907.712891,136.684250 913.395752,136.732559 919.017212,137.084015 
	C923.700562,137.376831 927.485962,141.704910 925.729492,145.224213 
	C924.459717,147.768402 920.962891,150.098572 918.055786,150.765793 
	C907.890991,153.098785 897.741089,151.702194 887.353760,148.993759 
z"/>
<path fill="#000000" opacity="1.000000" stroke="none" 
	d="
M156.824951,149.030777 
	C150.565231,150.054871 144.698730,151.798355 138.837402,151.781143 
	C132.947906,151.763840 127.058624,150.020447 121.183456,148.955109 
	C120.479179,148.827408 119.863838,148.209213 119.197914,147.812775 
	C126.887627,136.531235 143.093781,134.274292 154.481949,137.379242 
	C156.983658,138.061310 159.493042,140.816238 160.680923,143.257828 
	C161.210281,144.345856 158.474365,147.022507 156.824951,149.030777 
z"/>
<path fill="#000000" opacity="1.000000" stroke="none" 
	d="
M457.411316,272.677734 
	C457.397339,269.960358 456.975830,267.171082 458.098389,265.316254 
	C458.726135,264.278992 462.634674,263.908600 463.767822,264.831055 
	C465.171967,265.974091 466.208282,269.066864 465.680023,270.788605 
	C464.393494,274.982056 461.007019,274.639526 457.411316,272.677734 
z"/>
<path fill="#000000" opacity="1.000000" stroke="none" 
	d="
M510.256287,268.999146 
	C511.400024,265.463562 513.686707,263.369781 516.965149,264.332062 
	C518.595703,264.810669 520.622314,267.242920 520.677246,268.852570 
	C520.731506,270.443512 518.837830,272.793579 517.216492,273.531586 
	C515.901794,274.130005 513.598755,273.081970 511.979797,272.272675 
	C511.132385,271.849060 510.813690,270.367798 510.256287,268.999146 
z"/>
<path fill="#000000" opacity="1.000000" stroke="none" 
	d="
M562.133484,269.174438 
	C563.381592,266.193085 564.565369,263.139160 568.177185,264.314240 
	C569.704407,264.811157 571.865906,266.990570 571.727051,268.167786 
	C571.489075,270.184357 570.087646,273.014435 568.424561,273.710327 
	C565.157593,275.077271 562.738159,273.210083 562.133484,269.174438 
z"/>
<path fill="#000000" opacity="1.000000" stroke="none" 
	d="
M483.360474,270.649658 
	C483.217773,265.851288 485.893311,264.080414 489.828033,264.567047 
	C492.918701,264.949341 493.622192,267.721191 492.827148,270.253693 
	C492.376495,271.689148 490.523560,273.801483 489.488739,273.700317 
	C487.431183,273.499237 485.502594,271.978821 483.360474,270.649658 
z"/>
</svg>