<svg xmlns="http://www.w3.org/2000/svg" xmlns:xlink="http://www.w3.org/1999/xlink" width="851" zoomAndPan="magnify" viewBox="0 0 638.25 236.249991" height="315" preserveAspectRatio="xMidYMid meet" version="1.0"><defs><clipPath id="38c0e6b91f"><path d="M 458 0.785156 L 476 0.785156 L 476 18 L 458 18 Z M 458 0.785156 " clip-rule="nonzero"/></clipPath><clipPath id="078427f751"><path d="M 570 14 L 616.25 14 L 616.25 125 L 570 125 Z M 570 14 " clip-rule="nonzero"/></clipPath><clipPath id="23ca66ea4a"><path d="M 251 3 L 290 3 L 290 42 L 251 42 Z M 251 3 " clip-rule="nonzero"/></clipPath><clipPath id="6729d7a4a6"><path d="M 251.230469 28.839844 L 276.539062 3.53125 L 289.226562 16.214844 L 263.914062 41.527344 Z M 251.230469 28.839844 " clip-rule="nonzero"/></clipPath><clipPath id="194597c22b"><path d="M 0.167969 0.417969 L 38.449219 0.417969 L 38.449219 38.695312 L 0.167969 38.695312 Z M 0.167969 0.417969 " clip-rule="nonzero"/></clipPath><clipPath id="10f6c969c9"><path d="M 0.230469 25.839844 L 25.539062 0.53125 L 38.226562 13.214844 L 12.914062 38.527344 Z M 0.230469 25.839844 " clip-rule="nonzero"/></clipPath><clipPath id="fb4fe1d70b"><rect x="0" width="39" y="0" height="39"/></clipPath><clipPath id="1cb47d8319"><rect x="0" width="617" y="0" height="169"/></clipPath></defs><g transform="matrix(1, 0, 0, 1, 10, 54)"><g clip-path="url(#1cb47d8319)"><g clip-path="url(#38c0e6b91f)"><path fill="#ffffff" d="M 464.191406 1.363281 C 461.5625 2.214844 459.941406 3.832031 459.210938 6.34375 C 457.511719 12.175781 460.710938 17.117188 466.542969 17.722656 C 468.40625 17.925781 469.09375 17.765625 470.996094 16.875 C 474.074219 15.335938 475.410156 13.109375 475.410156 9.382812 C 475.453125 6.101562 474.480469 3.957031 472.128906 2.335938 C 470.226562 0.957031 466.664062 0.554688 464.191406 1.363281 Z M 464.191406 1.363281 " fill-opacity="1" fill-rule="nonzero"/></g><g clip-path="url(#078427f751)"><path fill="#ffffff" d="M 603.789062 15.050781 C 597.753906 15.738281 591.679688 17.847656 586.738281 20.921875 C 579.042969 25.703125 573.980469 32.707031 571.550781 41.820312 C 570.660156 45.183594 570.660156 45.382812 570.539062 84.949219 L 570.378906 124.757812 L 591.882812 124.757812 L 591.882812 74.542969 L 610.105469 74.542969 L 610.105469 54.292969 L 591.761719 54.292969 L 592.003906 51.136719 C 592.609375 43.441406 595.769531 39.066406 602.289062 36.796875 C 604.679688 35.988281 605.8125 35.867188 610.632812 35.867188 L 616.179688 35.867188 L 616.179688 15.132812 L 614.316406 14.847656 C 611.929688 14.523438 607.472656 14.605469 603.789062 15.050781 Z M 603.789062 15.050781 " fill-opacity="1" fill-rule="nonzero"/></g><path fill="#ffffff" d="M 1.019531 73.734375 L 1.019531 124.757812 L 22.484375 124.757812 L 22.484375 22.707031 L 1.019531 22.707031 Z M 1.019531 73.734375 " fill-opacity="1" fill-rule="nonzero"/><path fill="#ffffff" d="M 199.460938 40.726562 C 199.460938 50.648438 199.339844 58.75 199.214844 58.75 C 199.09375 58.75 198.042969 57.9375 196.949219 56.964844 C 192.371094 52.957031 187.230469 51.296875 179.617188 51.296875 C 172.082031 51.335938 166.292969 53.078125 160.175781 57.167969 C 152.804688 62.070312 147.703125 69.519531 145.113281 78.957031 C 143.855469 83.453125 143.855469 93.089844 145.113281 98.152344 C 146.773438 104.792969 149.929688 110.382812 154.589844 114.878906 C 158.636719 118.804688 162.566406 121.277344 167.628906 123.019531 C 182.734375 128.203125 199.863281 125.125 210.152344 115.445312 C 215.335938 110.546875 218.613281 104.511719 220.398438 96.613281 C 220.964844 94.183594 221.042969 88.675781 221.207031 58.222656 L 221.367188 22.707031 L 199.460938 22.707031 Z M 190.265625 72.519531 C 196.828125 74.988281 199.742188 80.457031 199.378906 89.484375 C 199.09375 96.289062 197.273438 100.136719 193.0625 102.808594 C 187.957031 106.089844 178.847656 106.171875 173.015625 103.011719 C 166.332031 99.328125 163.699219 89.445312 167.0625 80.496094 C 168.640625 76.324219 172.691406 73.003906 177.589844 71.828125 C 180.871094 71.058594 187.351562 71.425781 190.265625 72.519531 Z M 190.265625 72.519531 " fill-opacity="1" fill-rule="nonzero"/><path fill="#ffffff" d="M 314.066406 57.695312 C 314.066406 87.785156 314.148438 93.132812 314.714844 96.007812 C 316.457031 105.199219 320.992188 112.8125 327.757812 117.835938 C 340.1875 127.027344 359.585938 128.039062 373.597656 120.183594 C 377.367188 118.078125 383.804688 111.839844 385.828125 108.359375 C 389.554688 101.878906 390.8125 96.976562 390.769531 88.714844 C 390.730469 81.183594 389.757812 76.890625 386.84375 71.058594 C 380.523438 58.464844 369.023438 51.335938 354.96875 51.296875 C 347.761719 51.296875 343.1875 52.835938 338.203125 56.925781 C 336.949219 57.9375 335.855469 58.75 335.734375 58.75 C 335.613281 58.75 335.53125 50.648438 335.53125 40.726562 L 335.53125 22.707031 L 314.066406 22.707031 Z M 356.792969 71.75 C 361.9375 72.679688 365.785156 75.636719 367.96875 80.292969 C 369.308594 83.167969 369.347656 83.371094 369.308594 88.3125 C 369.308594 92.5625 369.144531 93.738281 368.375 95.683594 C 367.242188 98.558594 364.367188 101.796875 361.816406 103.132812 C 353.675781 107.222656 342.417969 105.441406 338.40625 99.367188 C 336.21875 96.128906 335.734375 93.941406 335.734375 88.109375 C 335.773438 81.75 336.503906 79.402344 339.621094 76 C 343.265625 71.992188 349.625 70.410156 356.792969 71.75 Z M 356.792969 71.75 " fill-opacity="1" fill-rule="nonzero"/><path fill="#ffffff" d="M 449.574219 25.339844 C 445.886719 26.632812 443.824219 30.238281 444.148438 34.652344 C 444.511719 39.027344 446.859375 41.738281 451.070312 42.628906 C 455 43.480469 458.886719 41.820312 460.832031 38.539062 C 461.925781 36.675781 462.167969 32.464844 461.316406 30.238281 C 459.617188 25.824219 454.351562 23.636719 449.574219 25.339844 Z M 449.574219 25.339844 " fill-opacity="1" fill-rule="nonzero"/><path fill="#ffffff" d="M 479.703125 25.09375 C 475.167969 26.554688 472.859375 30.074219 473.34375 34.773438 C 474.113281 42.105469 482.820312 45.546875 488.207031 40.6875 C 490.355469 38.742188 491.164062 36.433594 490.960938 32.910156 C 490.800781 29.46875 489.464844 27.199219 486.914062 25.90625 C 485.089844 24.972656 481.324219 24.527344 479.703125 25.09375 Z M 479.703125 25.09375 " fill-opacity="1" fill-rule="nonzero"/><path fill="#ffffff" d="M 66.828125 51.5 C 55.367188 52.957031 45.648438 58.707031 39.9375 67.457031 C 35.769531 73.855469 34.066406 80.699219 34.351562 89.933594 C 34.554688 96.816406 35.484375 100.945312 37.914062 105.929688 C 43.097656 116.457031 53.953125 123.503906 67.558594 125.207031 C 72.945312 125.894531 82.949219 125.40625 90.316406 124.152344 C 93.679688 123.585938 96.960938 122.976562 97.609375 122.816406 L 98.824219 122.492188 L 98.945312 112.488281 C 98.984375 106.980469 98.902344 102.484375 98.703125 102.484375 C 98.5 102.484375 97.363281 102.648438 96.148438 102.890625 C 86.835938 104.550781 72.582031 105.078125 67.71875 103.945312 C 64.722656 103.253906 61.6875 101.839844 59.863281 100.300781 C 58.730469 99.328125 56.179688 95.195312 56.746094 95.195312 C 56.90625 95.195312 58.730469 95.722656 60.753906 96.410156 C 65.453125 97.910156 68.691406 98.4375 73.148438 98.4375 C 85.214844 98.4375 97.164062 93.253906 101.777344 86.003906 C 106.679688 78.308594 105.34375 67.132812 98.742188 60.488281 C 91.734375 53.523438 79.179688 49.960938 66.828125 51.5 Z M 80.476562 73.289062 C 82.703125 74.339844 83.515625 75.878906 82.988281 77.902344 C 82.703125 78.957031 82.136719 79.441406 80.273438 80.375 C 78.210938 81.386719 77.320312 81.589844 73.632812 81.75 C 67.800781 81.996094 57.71875 80.457031 57.71875 79.320312 C 57.71875 78.347656 61.566406 74.949219 63.832031 73.933594 C 67.113281 72.476562 69.21875 72.152344 74.363281 72.273438 C 77.804688 72.355469 78.980469 72.558594 80.476562 73.289062 Z M 80.476562 73.289062 " fill-opacity="1" fill-rule="nonzero"/><path fill="#ffffff" d="M 264.863281 51.5 C 248.503906 53.566406 237.164062 63.203125 232.992188 78.550781 C 232.261719 81.101562 232.140625 82.761719 232.140625 88.3125 C 232.140625 94.183594 232.261719 95.480469 233.195312 98.882812 C 236.71875 112.246094 246.234375 121.074219 260.734375 124.476562 C 263.933594 125.207031 265.671875 125.328125 273.164062 125.328125 C 280.777344 125.328125 282.640625 125.164062 288.148438 124.234375 C 291.589844 123.625 294.992188 122.976562 295.640625 122.816406 L 296.855469 122.492188 L 296.976562 112.488281 C 297.019531 105.886719 296.9375 102.484375 296.652344 102.484375 C 296.453125 102.484375 294.667969 102.730469 292.726562 103.054688 C 283.371094 104.550781 270.976562 105.078125 266.484375 104.144531 C 263 103.457031 259.964844 102.121094 258.019531 100.378906 C 256.238281 98.839844 254.210938 95.761719 254.65625 95.316406 C 254.78125 95.238281 256.15625 95.601562 257.695312 96.167969 C 267.132812 99.570312 278.875 99.042969 288.59375 94.792969 C 298.800781 90.296875 303.699219 82.441406 302.40625 72.597656 C 300.867188 61.015625 290.699219 53.078125 275.394531 51.457031 C 271.140625 51.011719 268.792969 51.011719 264.863281 51.5 Z M 277.824219 72.921875 C 279.929688 73.734375 280.859375 74.90625 280.859375 76.769531 C 280.859375 79.96875 278.023438 81.46875 271.300781 81.75 C 265.1875 81.996094 255.75 80.496094 255.75 79.28125 C 255.75 78.472656 258.789062 75.515625 260.773438 74.339844 C 263.527344 72.71875 267.007812 72.113281 272.152344 72.273438 C 274.625 72.355469 277.175781 72.640625 277.824219 72.921875 Z M 277.824219 72.921875 " fill-opacity="1" fill-rule="nonzero"/><path fill="#ffffff" d="M 436.085938 51.457031 C 422.074219 53.039062 411.34375 59.84375 405.753906 70.574219 C 404.742188 72.558594 403.445312 75.917969 402.839844 78.105469 L 401.785156 82.035156 L 401.625 103.378906 L 401.460938 124.757812 L 423.410156 124.757812 L 423.410156 104.792969 C 423.410156 83.25 423.453125 82.886719 425.640625 79.160156 C 426.976562 76.890625 430.578125 74.339844 433.859375 73.328125 C 437.101562 72.316406 442.285156 71.910156 445.402344 72.4375 L 447.710938 72.800781 L 447.710938 62.394531 C 447.710938 52.996094 447.628906 51.945312 447.023438 51.703125 C 445.847656 51.257812 439.164062 51.09375 436.085938 51.457031 Z M 436.085938 51.457031 " fill-opacity="1" fill-rule="nonzero"/><path fill="#ffffff" d="M 521.214844 51.5 C 504.488281 53.605469 492.378906 64.417969 489.21875 80.171875 C 488.25 84.992188 488.574219 95.277344 489.828125 99.652344 C 493.917969 113.824219 505.703125 123.179688 521.941406 125.207031 C 527.328125 125.894531 537.332031 125.40625 544.703125 124.152344 C 548.0625 123.585938 551.34375 122.976562 551.992188 122.816406 L 553.207031 122.492188 L 553.328125 112.488281 C 553.367188 106.980469 553.289062 102.484375 553.085938 102.484375 C 552.882812 102.484375 551.75 102.648438 550.535156 102.890625 C 541.21875 104.550781 526.964844 105.078125 522.105469 103.945312 C 519.109375 103.253906 516.070312 101.839844 514.25 100.300781 C 513.113281 99.328125 510.5625 95.195312 511.128906 95.195312 C 511.292969 95.195312 513.113281 95.722656 515.140625 96.410156 C 521.902344 98.558594 527.855469 99.003906 534.617188 97.828125 C 550.210938 95.117188 559.078125 87.054688 559.078125 75.636719 C 559.078125 66.078125 554.058594 58.910156 544.214844 54.578125 C 537.816406 51.742188 528.910156 50.566406 521.214844 51.5 Z M 535.105469 73.328125 C 537.089844 74.460938 537.859375 76.039062 537.371094 77.902344 C 537.089844 78.957031 536.523438 79.441406 534.660156 80.375 C 532.59375 81.386719 531.703125 81.589844 528.015625 81.75 C 522.1875 81.996094 512.101562 80.457031 512.101562 79.320312 C 512.101562 78.347656 515.949219 74.949219 518.21875 73.933594 C 521.539062 72.476562 523.644531 72.152344 528.949219 72.273438 C 532.753906 72.394531 533.726562 72.558594 535.105469 73.328125 Z M 535.105469 73.328125 " fill-opacity="1" fill-rule="nonzero"/><path fill="#ffffff" d="M 457.023438 88.3125 L 457.023438 124.757812 L 478.488281 124.757812 L 478.488281 51.863281 L 457.023438 51.863281 Z M 457.023438 88.3125 " fill-opacity="1" fill-rule="nonzero"/><g clip-path="url(#23ca66ea4a)"><g clip-path="url(#6729d7a4a6)"><g transform="matrix(1, 0, 0, 1, 251, 3)"><g clip-path="url(#fb4fe1d70b)"><g clip-path="url(#194597c22b)"><g clip-path="url(#10f6c969c9)"><path fill="#ffffff" d="M 0.230469 25.839844 L 25.550781 0.515625 L 38.238281 13.203125 L 12.914062 38.527344 Z M 0.230469 25.839844 " fill-opacity="1" fill-rule="nonzero"/></g></g></g></g></g></g></g></g></svg>